<svg width="38" height="38" viewBox="0 0 38 38" fill="none" xmlns="http://www.w3.org/2000/svg">
<path d="M15.8333 4.75H6.33333C5.91341 4.75 5.51068 4.91681 5.21375 5.21375C4.91681 5.51068 4.75 5.91341 4.75 6.33333V15.8333C4.75 16.2533 4.91681 16.656 5.21375 16.9529C5.51068 17.2499 5.91341 17.4167 6.33333 17.4167H15.8333C16.2533 17.4167 16.656 17.2499 16.9529 16.9529C17.2499 16.656 17.4167 16.2533 17.4167 15.8333V6.33333C17.4167 5.91341 17.2499 5.51068 16.9529 5.21375C16.656 4.91681 16.2533 4.75 15.8333 4.75ZM31.6667 20.5833H22.1667C21.7467 20.5833 21.344 20.7501 21.0471 21.0471C20.7501 21.344 20.5833 21.7467 20.5833 22.1667V31.6667C20.5833 32.0866 20.7501 32.4893 21.0471 32.7863C21.344 33.0832 21.7467 33.25 22.1667 33.25H31.6667C32.0866 33.25 32.4893 33.0832 32.7863 32.7863C33.0832 32.4893 33.25 32.0866 33.25 31.6667V22.1667C33.25 21.7467 33.0832 21.344 32.7863 21.0471C32.4893 20.7501 32.0866 20.5833 31.6667 20.5833ZM26.9167 4.75C23.4238 4.75 20.5833 7.5905 20.5833 11.0833C20.5833 14.5762 23.4238 17.4167 26.9167 17.4167C30.4095 17.4167 33.25 14.5762 33.25 11.0833C33.25 7.5905 30.4095 4.75 26.9167 4.75ZM11.0833 20.5833C7.5905 20.5833 4.75 23.4238 4.75 26.9167C4.75 30.4095 7.5905 33.25 11.0833 33.25C14.5762 33.25 17.4167 30.4095 17.4167 26.9167C17.4167 23.4238 14.5762 20.5833 11.0833 20.5833Z" fill="#F5185B"/>
</svg>
