<svg width="46" height="46" viewBox="0 0 46 46" fill="none" xmlns="http://www.w3.org/2000/svg">
<path d="M11.8333 43.25C10.7792 43.25 9.87706 42.875 9.127 42.1249C8.37694 41.3749 8.00128 40.4721 8 39.4167V20.25C8 19.1958 8.37567 18.2937 9.127 17.5437C9.87833 16.7936 10.7804 16.4179 11.8333 16.4167H13.75V12.5833C13.75 9.93195 14.6847 7.6722 16.5541 5.80408C18.4235 3.93597 20.6832 3.00128 23.3333 3C25.9834 2.99872 28.2438 3.93342 30.1145 5.80408C31.9852 7.67475 32.9192 9.9345 32.9167 12.5833V16.4167H34.8333C35.8875 16.4167 36.7903 16.7923 37.5416 17.5437C38.2929 18.295 38.6679 19.1971 38.6667 20.25V39.4167C38.6667 40.4708 38.2916 41.3736 37.5416 42.1249C36.7915 42.8763 35.8888 43.2513 34.8333 43.25H11.8333ZM23.3333 33.6667C24.3875 33.6667 25.2903 33.2916 26.0416 32.5416C26.7929 31.7915 27.1679 30.8888 27.1667 29.8333C27.1654 28.7779 26.7904 27.8758 26.0416 27.127C25.2928 26.3782 24.3901 26.0026 23.3333 26C22.2766 25.9974 21.3745 26.3731 20.627 27.127C19.8795 27.8809 19.5038 28.783 19.5 29.8333C19.4962 30.8837 19.8718 31.7864 20.627 32.5416C21.3822 33.2968 22.2843 33.6718 23.3333 33.6667ZM17.5833 16.4167H29.0833V12.5833C29.0833 10.9861 28.5243 9.62847 27.4062 8.51042C26.2882 7.39236 24.9306 6.83333 23.3333 6.83333C21.7361 6.83333 20.3785 7.39236 19.2604 8.51042C18.1424 9.62847 17.5833 10.9861 17.5833 12.5833V16.4167Z" fill="black"/>
</svg>
