<svg width="44" height="44" viewBox="0 0 44 44" fill="none" xmlns="http://www.w3.org/2000/svg">
<path d="M16.4993 20.1667C17.9497 20.1667 19.3676 19.7366 20.5735 18.9308C21.7795 18.125 22.7194 16.9797 23.2745 15.6397C23.8295 14.2997 23.9747 12.8252 23.6918 11.4027C23.4088 9.98015 22.7104 8.67347 21.6848 7.64789C20.6592 6.6223 19.3525 5.92387 17.93 5.64091C16.5075 5.35795 15.033 5.50318 13.693 6.05822C12.353 6.61326 11.2077 7.55319 10.4019 8.75915C9.59611 9.96512 9.16602 11.3829 9.16602 12.8333C9.16602 14.7783 9.93863 16.6435 11.3139 18.0188C12.6892 19.3941 14.5544 20.1667 16.4993 20.1667ZM31.166 23.8333C32.2538 23.8333 33.3172 23.5108 34.2217 22.9064C35.1261 22.3021 35.8311 21.4431 36.2474 20.4381C36.6636 19.4331 36.7726 18.3272 36.5603 17.2603C36.3481 16.1934 35.8243 15.2134 35.0551 14.4443C34.2859 13.6751 33.3059 13.1512 32.239 12.939C31.1721 12.7268 30.0663 12.8357 29.0613 13.252C28.0563 13.6683 27.1973 14.3732 26.5929 15.2777C25.9886 16.1822 25.666 17.2455 25.666 18.3333C25.666 19.792 26.2455 21.191 27.2769 22.2224C28.3084 23.2539 29.7073 23.8333 31.166 23.8333ZM38.4994 36.6667C38.9856 36.6667 39.4519 36.4735 39.7957 36.1297C40.1395 35.7859 40.3327 35.3196 40.3327 34.8333C40.3312 33.1199 39.8495 31.4412 38.9423 29.9876C38.0351 28.5341 36.7386 27.3639 35.2 26.6099C33.6614 25.8558 31.9422 25.5481 30.2376 25.7217C28.533 25.8952 26.9111 26.543 25.556 27.5917C23.7603 25.803 21.4751 24.5861 18.9887 24.0944C16.5023 23.6028 13.9259 23.8584 11.5846 24.8291C9.24326 25.7997 7.24177 27.442 5.83254 29.5486C4.42331 31.6553 3.66944 34.1321 3.66602 36.6667C3.66602 37.1529 3.85917 37.6192 4.20299 37.963C4.5468 38.3069 5.01312 38.5 5.49935 38.5H27.4993C27.9856 38.5 28.4519 38.3069 28.7957 37.963C29.1395 37.6192 29.3327 37.1529 29.3327 36.6667" fill="white"/>
</svg>
